<?xml version="1.0" encoding="iso-8859-1"?>
<!-- Uploaded to: SVG Repo, www.svgrepo.com, Generator: SVG Repo Mixer Tools -->
<svg fill="#000000" height="800px" width="800px" version="1.1" id="Layer_1" xmlns="http://www.w3.org/2000/svg" xmlns:xlink="http://www.w3.org/1999/xlink" 
	 viewBox="0 0 472.615 472.615" xml:space="preserve">
<g>
	<g>
		<path d="M388.152,303.332h-65.587v-134.05h65.587c46.572,0,84.463-37.89,84.463-84.463c0-46.572-37.891-84.462-84.463-84.462
			c-46.572,0-84.463,37.89-84.463,84.462v65.587H168.926V84.82c0-46.572-37.891-84.462-84.463-84.462C37.89,0.357,0,38.247,0,84.82
			c0,46.573,37.89,84.463,84.462,84.463h65.587v134.05H84.462C37.89,303.332,0,341.222,0,387.795
			c0,46.573,37.89,84.463,84.462,84.463c46.572,0,84.463-37.89,84.463-84.463v-65.586h134.763v65.586
			c0,46.573,37.891,84.463,84.463,84.463c46.572,0,84.463-37.89,84.463-84.463C472.615,341.222,434.724,303.332,388.152,303.332z
			 M322.565,84.82c0-36.167,29.42-65.586,65.587-65.586c36.167,0,65.587,29.419,65.587,65.586c0,36.167-29.42,65.587-65.587,65.587
			h-65.587V84.82z M150.049,387.795c0,36.167-29.42,65.587-65.587,65.587s-65.586-29.42-65.586-65.587
			c0-36.166,29.419-65.586,65.586-65.586h65.587V387.795z M150.049,150.407H84.462c-36.167,0-65.586-29.42-65.586-65.587
			c0-36.167,29.419-65.586,65.586-65.586s65.587,29.419,65.587,65.586V150.407z M303.689,303.332H168.926v-134.05h134.763V303.332z
			 M388.152,453.382c-36.167,0-65.587-29.42-65.587-65.587v-65.586h65.587c36.167,0,65.587,29.42,65.587,65.586
			C453.739,423.962,424.319,453.382,388.152,453.382z"/>
	</g>
</g>
</svg>